HIERARCHY
ROOT Hips
{
 OFFSET 0.000000 0.000000 0.000000
 CHANNELS 6 Xposition Yposition Zposition Yrotation Xrotation Zrotation
 JOINT Chest
 {
  OFFSET 0.000000 9.585900 0.002600
  CHANNELS 3 Yrotation Xrotation Zrotation
  JOINT Chest2
  {
   OFFSET 0.000000 9.601200 -0.005300
   CHANNELS 3 Yrotation Xrotation Zrotation
   JOINT Chest3
   {
    OFFSET 0.000000 9.561800 0.000000
    CHANNELS 3 Yrotation Xrotation Zrotation
    JOINT Chest4
    {
     OFFSET 0.000000 9.552100 0.000000
     CHANNELS 3 Yrotation Xrotation Zrotation
     JOINT Neck
     {
      OFFSET 0.000000 14.453000 0.000000
      CHANNELS 3 Yrotation Xrotation Zrotation
      JOINT Head
      {
       OFFSET 0.000000 8.936500 -0.011300
       CHANNELS 3 Yrotation Xrotation Zrotation
       End Site
       {
        OFFSET 0.000000 17.073600 -0.006000
       }
      }
     }
     JOINT RightCollar
     {
      OFFSET -2.921100 9.558500 0.000000
      CHANNELS 3 Yrotation Xrotation Zrotation
      JOINT RightShoulder
      {
       OFFSET -13.519700 0.000000 0.000000
       CHANNELS 3 Yrotation Xrotation Zrotation
       JOINT RightElbow
       {
        OFFSET 0.000000 -29.696600 0.000000
        CHANNELS 3 Yrotation Xrotation Zrotation
        JOINT RightWrist
        {
         OFFSET 0.000000 -24.004700 0.000000
         CHANNELS 3 Yrotation Xrotation Zrotation
         End Site
         {
          OFFSET 0.000000 -17.728500 0.000000
         }
        }
       }
      }
     }
     JOINT LeftCollar
     {
      OFFSET 2.921100 9.558500 0.000000
      CHANNELS 3 Yrotation Xrotation Zrotation
      JOINT LeftShoulder
      {
       OFFSET 13.519700 0.000000 0.000000
       CHANNELS 3 Yrotation Xrotation Zrotation
       JOINT LeftElbow
       {
        OFFSET 0.000000 -29.696600 0.000000
        CHANNELS 3 Yrotation Xrotation Zrotation
        JOINT LeftWrist
        {
         OFFSET 0.000000 -24.004700 0.000000
         CHANNELS 3 Yrotation Xrotation Zrotation
         End Site
         {
          OFFSET 0.000000 -17.728500 0.000000
         }
        }
       }
      }
     }
    }
   }
  }
 }
 JOINT RightHip
 {
  OFFSET -7.771700 -0.012900 -0.001300
  CHANNELS 3 Yrotation Xrotation Zrotation
  JOINT RightKnee
  {
   OFFSET 0.000000 -40.869800 0.001200
   CHANNELS 3 Yrotation Xrotation Zrotation
   JOINT RightAnkle
   {
    OFFSET 0.000000 -39.717900 0.002100
    CHANNELS 3 Yrotation Xrotation Zrotation
    JOINT RightToe
    {
     OFFSET 0.000000 -4.965400 11.033500
     CHANNELS 3 Yrotation Xrotation Zrotation
     End Site
     {
      OFFSET 0.000000 -1.423100 5.872300
     }
    }
   }
  }
 }
 JOINT LeftHip
 {
  OFFSET 7.771700 -0.012900 -0.001300
  CHANNELS 3 Yrotation Xrotation Zrotation
  JOINT LeftKnee
  {
   OFFSET 0.000000 -40.869800 0.001200
   CHANNELS 3 Yrotation Xrotation Zrotation
   JOINT LeftAnkle
   {
    OFFSET 0.000000 -39.717900 0.002100
    CHANNELS 3 Yrotation Xrotation Zrotation
    JOINT LeftToe
    {
     OFFSET 0.000000 -4.965400 11.033500
     CHANNELS 3 Yrotation Xrotation Zrotation
     End Site
     {
      OFFSET 0.000000 -1.423100 5.872300
     }
    }
   }
  }
 }
}
MOTION
Frames: 16
Frame Time: 0.008333
0.000000 85.388000 0.000000 0.000000 -5.767877 0.000000 0.000000 11.653817 0.000000 0.000000 -5.885947 0.000000 0.000000 -0.000000 0.000000 0.000000 -0.000000 0.000000 0.000000 12.528835 0.000000 0.000000 0.711642 0.000000 0.000000 -0.000000 0.000000 0.000000 0.000000 -90.000000 0.000000 -2.309062 0.000000 0.000000 2.309062 0.000000 0.000000 -0.000000 0.000000 0.000000 -0.000000 90.000000 0.000000 -2.309062 0.000000 0.000000 2.309062 0.000000 0.000000 8.520406 0.000000 0.000000 1.905762 0.000000 -0.000000 -4.658285 0.000000 0.000000 -0.000000 0.000000 0.000000 8.520406 0.000000 0.000000 1.905762 0.000000 -0.000000 -4.658285 0.000000 0.000000 -0.000000 0.000000
-63.983813 57.830098 11.694830 178.170807 -49.719125 -3.454745 3.599244 21.961629 2.633103 1.852722 12.586055 1.377526 2.393785 15.737138 1.714816 1.862588 12.586644 1.318478 2.099130 15.705663 2.806766 2.895021 -6.645822 4.469339 1.529232 5.046962 0.500779 -8.683968 -15.546351 -6.254345 -54.352004 -47.605759 109.756292 4.522315 -7.909906 -18.618412 -9.585180 1.356041 0.100997 9.111841 -9.742208 8.743163 37.978814 -23.866896 -103.324647 22.660446 -12.368998 1.973258 6.931404 -21.491807 -1.725971 -33.989289 74.289534 -38.445975 6.772208 -16.177327 13.437704 0.021035 -0.089839 0.018627 -8.340499 -19.288184 5.377767 87.588991 80.451300 86.913628 1.097463 -21.416221 -19.252304 -0.005314 0.020608 -0.010562
-63.983756 57.828201 11.688098 178.188615 -49.700436 -3.473508 3.610886 21.946711 2.620303 1.850321 12.586290 1.360909 2.394105 15.729295 1.744949 1.859676 12.580185 1.294374 2.194526 15.688000 2.954916 3.033024 -6.661904 4.779816 1.519232 5.067377 0.405688 -9.163378 -15.397339 -5.897406 -54.950108 -46.874321 110.454794 3.904247 -9.302175 -19.283690 -9.499234 1.396242 0.117035 9.686682 -9.658073 8.271522 38.872167 -24.282644 -103.866548 22.605990 -12.670027 1.504015 6.910475 -21.512268 -1.725336 -34.008737 74.300678 -38.473473 6.796810 -16.182985 13.442133 0.022024 -0.097953 0.011399 -8.343913 -19.312674 5.390770 87.808868 80.467410 87.135064 1.104612 -21.441860 -19.241895 -0.010316 0.014899 -0.014065
-63.986838 57.826349 11.679059 178.230674 -49.686371 -3.493926 3.603739 21.930655 2.592775 1.845375 12.585155 1.343816 2.394400 15.718698 1.727305 1.866430 12.580939 1.320640 2.285047 15.675566 3.104626 3.152828 -6.656126 5.093539 1.512356 5.089167 0.316523 -9.627237 -15.267200 -5.545430 -55.551001 -46.161140 111.112371 3.342120 -10.648062 -19.879727 -9.416928 1.437786 0.137470 10.263687 -9.590689 7.797609 39.802717 -24.735487 -104.402677 22.585210 -12.941338 1.077011 6.885056 -21.524417 -1.739276 -34.121961 74.314638 -38.590812 6.801108 -16.197117 13.447787 0.019471 -0.105843 0.009837 -8.349319 -19.333523 5.382395 87.882538 80.476211 87.223637 1.095020 -21.446068 -19.236829 -0.004226 0.006598 -0.010685
-63.988199 57.823691 11.669183 178.261999 -49.671971 -3.519108 3.610609 21.904837 2.580394 1.867678 12.562920 1.296876 2.381493 15.727275 1.753429 1.867783 12.543421 1.252800 2.396939 15.706426 3.350180 3.255225 -6.633704 5.408332 1.514787 5.153017 0.327499 -10.079647 -15.150295 -5.204188 -56.163485 -45.478051 111.746431 2.815579 -11.939307 -20.411792 -9.337854 1.538818 0.243761 10.816247 -9.534954 7.329519 40.787204 -25.216551 -104.945629 22.603273 -13.182926 0.710072 6.856575 -21.540074 -1.740370 -34.145097 74.324124 -38.619696 6.796550 -16.186444 13.451488 0.025260 -0.107975 0.008348 -8.352832 -19.351273 5.386660 88.022986 80.483562 87.378333 1.088391 -21.465766 -19.233790 0.002270 0.003813 -0.006059
-63.989739 57.821516 11.657486 178.285543 -49.668846 -3.540218 3.626010 21.884741 2.570505 1.857110 12.566809 1.304710 2.401357 15.683219 1.677284 1.871820 12.546466 1.271342 2.483989 15.732283 3.553794 3.342296 -6.602532 5.721762 1.504024 5.208227 0.307675 -10.519248 -15.044032 -4.874015 -56.800938 -44.839464 112.369197 2.322111 -13.153088 -20.910602 -9.275943 1.626702 0.314530 11.320263 -9.489536 6.879491 41.830153 -25.710879 -105.494390 22.638868 -13.417275 0.399474 6.838562 -21.541616 -1.752334 -34.133440 74.337602 -38.605001 6.822837 -16.184982 13.450906 0.017702 -0.117443 0.002507 -8.362434 -19.354583 5.390281 88.172508 80.487375 87.532992 1.086729 -21.487534 -19.232523 0.003133 0.001334 -0.005915
-63.992661 57.819712 11.644309 178.360925 -49.674165 -3.596083 3.607091 21.876337 2.555295 1.848186 12.568464 1.314047 2.418368 15.656609 1.631298 1.874918 12.546696 1.278736 2.559034 15.749273 3.733737 3.417582 -6.572096 6.029764 1.486785 5.249642 0.276021 -10.946762 -14.949947 -4.552263 -57.467439 -44.252610 112.978103 1.870095 -14.246631 -21.398308 -9.225751 1.701821 0.367163 11.759208 -9.460156 6.458141 42.931334 -26.210089 -106.030985 22.672319 -13.676278 0.117636 6.790961 -21.531555 -1.757250 -34.184685 74.358744 -38.655433 6.835175 -16.196085 13.452554 0.014741 -0.132816 -0.001883 -8.375488 -19.351318 5.381939 88.222206 80.494247 87.614198 1.078381 -21.500818 -19.230850 0.010346 0.000410 -0.004115
-63.995249 57.815469 11.632565 178.390587 -49.669130 -3.623631 3.618091 21.858761 2.545563 1.880486 12.539242 1.271780 2.410248 15.666662 1.666272 1.872268 12.553946 1.303124 2.625845 15.750238 3.872440 3.482076 -6.546879 6.328779 1.470087 5.275522 0.217381 -11.372775 -14.872885 -4.237811 -58.153045 -43.716090 113.582327 1.465146 -15.212997 -21.909981 -9.190183 1.746571 0.389313 12.139170 -9.441469 6.070091 44.097502 -26.715753 -106.547402 22.709965 -13.955163 -0.136342 6.773978 -21.536157 -1.763521 -34.188966 74.373681 -38.652848 6.835725 -16.193407 13.452505 0.008850 -0.136170 -0.003084 -8.355991 -19.360402 5.379553 88.275228 80.499997 87.704547 1.073532 -21.513069 -19.229198 0.015573 0.000294 -0.001477
-63.997870 57.810741 11.620903 178.413763 -49.666684 -3.650747 3.633952 21.845085 2.540679 1.886947 12.531699 1.266601 2.405888 15.669480 1.681276 1.889024 12.527921 1.255710 2.687317 15.768705 4.057184 3.534921 -6.525177 6.616743 1.448672 5.316885 0.254522 -11.809721 -14.812279 -3.972107 -58.823690 -43.208760 114.184132 1.118760 -16.095575 -22.475154 -9.196709 1.803472 0.459274 12.479134 -9.423950 5.715841 45.323191 -27.226441 -107.049855 22.763114 -14.229447 -0.339031 6.775752 -21.535821 -1.773940 -34.180426 74.383534 -38.621427 6.835086 -16.185942 13.454639 -0.003022 -0.137163 -0.007120 -8.288323 -19.367958 5.368321 88.290801 80.507920 87.798270 1.069037 -21.532121 -19.227907 0.022609 0.003021 0.002765
-64.001688 57.805876 11.609223 178.439930 -49.668480 -3.677844 3.645497 21.837247 2.534619 1.893665 12.523856 1.262534 2.401799 15.671760 1.693954 1.907569 12.501756 1.214969 2.741051 15.786237 4.232449 3.578033 -6.504913 6.892560 1.409720 5.379396 0.225466 -12.281323 -14.771578 -3.643013 -59.435569 -42.691033 114.763817 0.839032 -16.917285 -23.076656 -9.172945 1.881056 0.516610 12.728659 -9.447659 5.402583 46.580285 -27.734854 -107.539671 22.820135 -14.488140 -0.485713 6.772895 -21.530595 -1.778339 -34.201471 74.396841 -38.627087 6.828091 -16.191071 13.457738 -0.007654 -0.133077 -0.007886 -8.243005 -19.371194 5.358370 88.357760 80.510287 87.920026 1.065458 -21.553981 -19.223931 0.028117 0.008407 0.006903
-64.006545 57.800342 11.598304 178.469255 -49.669133 -3.705940 3.646702 21.832379 2.531109 1.901831 12.514018 1.252207 2.430931 15.643038 1.659739 1.899563 12.510501 1.247777 2.790609 15.797255 4.383024 3.616335 -6.484896 7.155089 1.374062 5.441396 0.180829 -12.787232 -14.752783 -3.318353 -59.966315 -42.143428 115.305329 0.607797 -17.673263 -23.680249 -9.145040 1.945161 0.557181 12.931972 -9.486681 5.130244 47.844450 -28.232718 -108.013873 22.868231 -14.730128 -0.589087 6.770655 -21.525644 -1.785420 -34.230219 74.407065 -38.645991 6.846476 -16.195417 13.465811 -0.006585 -0.123001 -0.008904 -8.214676 -19.376710 5.351488 88.433904 80.513235 88.036397 1.061905 -21.572517 -19.218688 0.031166 0.011890 0.009038
-64.011582 57.794537 11.588198 178.486514 -49.670953 -3.727947 3.656465 21.826978 2.523630 1.906297 12.506207 1.248799 2.429509 15.649412 1.683052 1.904477 12.487703 1.213687 2.836912 15.809070 4.525333 3.651702 -6.463243 7.403307 1.358602 5.483497 0.191815 -13.316112 -14.744585 -3.059613 -60.423774 -41.582315 115.806865 0.392309 -18.374135 -24.263736 -9.078719 2.037480 0.586866 13.059684 -9.574076 4.903266 49.109002 -28.715301 -108.469880 22.908907 -14.949923 -0.662763 6.765790 -21.522011 -1.782951 -34.256750 74.419190 -38.669674 6.849545 -16.211716 13.471849 0.004268 -0.114184 -0.007620 -8.205247 -19.378236 5.354521 88.546285 80.510975 88.166932 1.055798 -21.592790 -19.215686 0.034676 0.014998 0.010947
-64.018512 57.788898 11.578608 178.512171 -49.675906 -3.748108 3.658254 21.824486 2.502316 1.907271 12.500793 1.253011 2.435962 15.637518 1.674010 1.907056 12.483107 1.218795 2.878143 15.821453 4.658811 3.681003 -6.440157 7.636792 1.325988 5.559643 0.143315 -13.850396 -14.773899 -2.744150 -60.823498 -41.020586 116.273248 0.180191 -19.020105 -24.806848 -9.049439 2.093939 0.619363 13.191861 -9.640585 4.714912 50.361294 -29.181659 -108.908667 22.948550 -15.142502 -0.707354 6.759015 -21.514708 -1.786159 -34.293313 74.438638 -38.725679 6.870963 -16.234520 13.499599 -0.022595 -0.120571 -0.015803 -8.199027 -19.378549 5.348316 88.650498 80.504834 88.290656 1.042560 -21.605829 -19.208859 0.039522 0.012952 0.009013
-64.024173 57.782977 11.570506 178.538340 -49.678529 -3.778140 3.656379 21.821426 2.497660 1.907938 12.497306 1.256187 2.445099 15.608525 1.636536 1.909194 12.494676 1.251763 2.914119 15.833134 4.783504 3.703670 -6.418112 7.855807 1.296780 5.646438 0.090681 -14.393267 -14.826425 -2.431733 -61.160593 -40.458430 116.698191 -0.013937 -19.602716 -25.299355 -9.019486 2.146242 0.647009 13.305865 -9.718289 4.559250 51.569232 -29.626272 -109.325437 22.987480 -15.325740 -0.722245 6.760362 -21.506672 -1.780061 -34.333505 74.440582 -38.759094 6.846423 -16.234891 13.515323 -0.027364 -0.114717 -0.013464 -8.176269 -19.385063 5.347686 88.772593 80.508779 88.448192 1.037978 -21.623374 -19.201041 0.040602 0.013247 0.009426
-64.029364 57.777256 11.563589 178.559670 -49.681764 -3.807653 3.656534 21.819093 2.497728 1.905633 12.499170 1.268971 2.442488 15.596460 1.620564 1.908754 12.489836 1.250898 2.946889 15.842996 4.899936 3.723213 -6.399566 8.060683 1.285098 5.710756 0.067695 -14.941201 -14.875386 -2.162451 -61.432055 -39.901892 117.073937 -0.178978 -20.127077 -25.741783 -8.998037 2.181641 0.667708 13.431512 -9.795436 4.438712 52.696960 -30.039605 -109.704408 23.014050 -15.523750 -0.727920 6.777750 -21.491621 -1.772952 -34.370592 74.431570 -38.771184 6.831172 -16.247537 13.523318 -0.036216 -0.093653 -0.011224 -8.141339 -19.394500 5.344375 88.853565 80.515141 88.578896 1.038366 -21.629702 -19.198240 0.040466 0.010395 0.011535
-64.034297 57.771744 11.557927 178.587186 -49.684314 -3.842388 3.649472 21.818753 2.501401 1.908664 12.491170 1.264718 2.435361 15.596260 1.622191 1.906322 12.486410 1.250609 2.976583 15.849419 5.008514 3.739748 -6.387456 8.252030 1.273070 5.782761 0.037487 -15.480289 -14.942052 -1.891301 -61.657877 -39.366658 117.407053 -0.330365 -20.594933 -26.133994 -8.971915 2.210971 0.684019 13.565266 -9.882734 4.346498 53.722461 -30.419007 -110.034022 23.020894 -15.738431 -0.743601 6.773279 -21.483658 -1.759081 -34.396332 74.428290 -38.789147 6.827984 -16.251946 13.523984 -0.037638 -0.075770 -0.008420 -8.145924 -19.396884 5.351991 88.907848 80.516825 88.650008 1.034636 -21.635552 -19.197289 0.042015 0.012267 0.014728
